<?xml version="1.0" encoding="utf-8"?>
<!-- Generator: Adobe Illustrator 24.0.1, SVG Export Plug-In . SVG Version: 6.00 Build 0)  -->
<svg version="1.1" id="Layer_1" xmlns="http://www.w3.org/2000/svg" xmlns:xlink="http://www.w3.org/1999/xlink" x="0px" y="0px"
	 viewBox="0 0 240 240" style="enable-background:new 0 0 240 240;" xml:space="preserve">
<style type="text/css">
	.st0{fill:#1F212B;}
	.st1{fill:#757575;}
	.st2{fill:#E0E0E0;}
	.st3{fill:#FFAB40;}
</style>
<path class="st0" d="M188.6,240H51.4c-9.5,0-17.1-7.7-17.1-17.1V17.1C34.3,7.7,42,0,51.4,0h137.1c9.5,0,17.1,7.7,17.1,17.1v205.7
	C205.7,232.3,198,240,188.6,240z"/>
<path class="st1" d="M171.4,68.6H68.6c-4.7,0-8.6-3.8-8.6-8.6V25.7c0-4.7,3.8-8.6,8.6-8.6h102.9c4.7,0,8.6,3.8,8.6,8.6V60
	C180,64.7,176.2,68.6,171.4,68.6z"/>
<circle class="st2" cx="68.6" cy="102.9" r="17.1"/>
<circle class="st2" cx="120" cy="102.9" r="17.1"/>
<circle class="st3" cx="171.4" cy="102.9" r="17.1"/>
<circle class="st2" cx="68.6" cy="154.3" r="17.1"/>
<circle class="st2" cx="120" cy="154.3" r="17.1"/>
<circle class="st3" cx="171.4" cy="154.3" r="17.1"/>
<circle class="st3" cx="171.4" cy="205.7" r="17.1"/>
<path class="st2" d="M120,222.9H68.6c-9.5,0-17.1-7.7-17.1-17.1l0,0c0-9.5,7.7-17.1,17.1-17.1H120c9.5,0,17.1,7.7,17.1,17.1l0,0
	C137.1,215.2,129.5,222.9,120,222.9z"/>
</svg>
